<?xml version="1.0" encoding="utf-8"?>
<!-- Generator: Adobe Illustrator 15.0.0, SVG Export Plug-In . SVG Version: 6.00 Build 0)  -->
<!DOCTYPE svg PUBLIC "-//W3C//DTD SVG 1.1//EN" "http://www.w3.org/Graphics/SVG/1.1/DTD/svg11.dtd">
<svg version="1.1" id="git" xmlns="http://www.w3.org/2000/svg" xmlns:xlink="http://www.w3.org/1999/xlink" x="0px" y="0px"
	 width="20px" height="20px" viewBox="0 0 20 20" enable-background="new 0 0 20 20" xml:space="preserve">
<path fill="#FFFFFF" d="M19.624,9.109l-8.733-8.731c-0.502-0.503-1.318-0.503-1.821,0L7.256,2.191l2.3,2.3
	c0.534-0.181,1.147-0.06,1.573,0.367c0.428,0.428,0.549,1.047,0.363,1.583l2.218,2.217c0.536-0.185,1.155-0.065,1.583,0.364
	c0.599,0.598,0.599,1.568,0,2.167c-0.599,0.599-1.569,0.599-2.168,0c-0.45-0.451-0.562-1.112-0.333-1.667l-2.068-2.068l0,5.44
	c0.146,0.072,0.284,0.169,0.405,0.29c0.599,0.598,0.599,1.568,0,2.167c-0.599,0.599-1.569,0.599-2.167,0
	c-0.599-0.599-0.599-1.569,0-2.167c0.147-0.147,0.318-0.26,0.501-0.334V7.36C9.281,7.285,9.111,7.174,8.963,7.025
	C8.51,6.572,8.4,5.906,8.632,5.35L6.365,3.082L0.378,9.07c-0.503,0.503-0.503,1.318,0,1.821l8.732,8.733
	c0.503,0.502,1.318,0.502,1.822,0l8.692-8.692C20.126,10.429,20.126,9.612,19.624,9.109z"/>
</svg>
