<?xml version="1.0" encoding="UTF-8" standalone="no"?>
<svg width="32px" height="32px" viewBox="0 0 32 32" version="1.1" xmlns="http://www.w3.org/2000/svg" xmlns:xlink="http://www.w3.org/1999/xlink" xmlns:sketch="http://www.bohemiancoding.com/sketch/ns">
    <title>github</title>
    <description>Created with Sketch (http://www.bohemiancoding.com/sketch)</description>
    <defs></defs>
    <g id="Page 1" stroke="none" stroke-width="1" fill="none" fill-rule="evenodd">
        <path d="M15.9990178,0 C7.16414979,0 0,7.16316759 0,16.0009822 C0,23.0688766 4.58391651,29.0651934 10.9426642,31.1818293 C11.7431553,31.3281768 12.034868,30.8341314 12.034868,30.409822 C12.034868,30.0306937 12.0211172,29.0239411 12.0132597,27.6891344 C7.56292204,28.6556169 6.62394107,25.5440147 6.62394107,25.5440147 C5.8961326,23.6955187 4.84714549,23.2044199 4.84714549,23.2044199 C3.39447514,22.211418 4.95715163,22.231062 4.95715163,22.231062 C6.56304481,22.3449969 7.40773481,23.8801719 7.40773481,23.8801719 C8.83486802,26.3248619 11.1518723,25.6186618 12.0643339,25.2100675 C12.2096992,24.1758134 12.6222222,23.4705955 13.0799263,23.070841 C9.52731737,22.6671578 5.79201964,21.2940454 5.79201964,15.1631676 C5.79201964,13.4168201 6.41571516,11.9887047 7.43916513,10.8699816 C7.27415592,10.4653161 6.72510743,8.83879681 7.59533456,6.63572744 C7.59533456,6.63572744 8.93898097,6.20552486 11.9955801,8.27599754 C13.2714549,7.92044199 14.6406384,7.74364641 16.0009822,7.73677103 C17.3593616,7.74364641 18.7285451,7.92044199 20.0063843,8.27599754 C23.061019,6.20552486 24.4017188,6.63572744 24.4017188,6.63572744 C25.2748926,8.83879681 24.7258441,10.4653161 24.5608349,10.8699816 C25.5862492,11.9887047 26.206016,13.4168201 26.206016,15.1631676 C26.206016,21.3097606 22.464825,22.6622468 18.9004297,23.0580724 C19.4750153,23.5521179 19.9867403,24.5284223 19.9867403,26.0213628 C19.9867403,28.1596071 19.9670964,29.8853284 19.9670964,30.409822 C19.9670964,30.8380602 20.2548803,31.3360344 21.0671578,31.1798649 C27.4190301,29.0593002 32,23.0669122 32,16.0009822 C32,7.16316759 24.8358502,0 15.9990178,0" id="Shape" fill="#000"></path>
    </g>
</svg>