<?xml version="1.0" encoding="UTF-8" standalone="no"?>
<svg width="480px" height="386px" viewBox="0 0 480 386" version="1.1" xmlns="http://www.w3.org/2000/svg" xmlns:xlink="http://www.w3.org/1999/xlink" xmlns:sketch="http://www.bohemiancoding.com/sketch/ns">
    <title>Untitled 2</title>
    <description>Created with Sketch (http://www.bohemiancoding.com/sketch)</description>
    <defs></defs>
    <g id="Page-1" stroke="none" stroke-width="1" fill="none" fill-rule="evenodd" sketch:type="MSPage">
        <path d="M95.9403626,0.00374489831 C81.6673368,0.149469001 67.2908118,4.56734954 54.8557261,13.6042426 C23.0273773,36.7289062 15.9643642,81.2882337 39.0823003,113.118788 C41.8484384,116.924752 44.9402221,120.384562 48.257487,123.471141 L34.6865435,252.592123 C16.1199369,263.701455 2.83115202,283.134874 0.3952904,306.313622 C-3.71370384,345.438943 24.6787462,380.491903 63.8041355,384.603832 C102.928215,388.718408 137.962418,360.314699 142.081295,321.184084 C144.511878,297.997436 135.537763,276.253525 119.687853,261.509652 L127.584786,186.438552 L171.916793,247.488471 C163.176043,275.813058 172.827858,307.766906 198.137732,326.161134 C229.962125,349.287121 274.505747,342.215863 297.630272,310.38335 C311.319876,291.532814 314.432762,268.224844 308.077772,247.533305 L352.409778,186.466249 L360.307373,261.509652 C344.458125,276.253525 335.483348,297.997436 337.914592,321.184084 C342.026881,360.314699 377.09273,388.718408 416.21812,384.603832 C455.343509,380.491903 483.712886,345.438943 479.604553,306.313622 C477.162751,283.134874 463.875289,263.701455 445.313962,252.592123 L431.743018,123.471141 C447.592266,108.733872 456.572322,86.9892858 454.13052,63.8000044 C450.022187,24.6647844 414.956351,-3.70991726 375.832271,0.404658361 C336.705559,4.51263042 308.336196,39.560972 312.451117,78.7001488 C312.948172,83.394974 313.864502,87.9262765 315.200108,92.2683308 L240.024642,195.78931 L164.794456,92.2254819 C171.144168,71.543179 168.043149,48.2279437 154.353545,29.3760982 C140.263796,9.97695343 118.215792,-0.224409 95.9403626,0.00374489831 L95.9403626,0.00374489831 Z M95.4914253,23.7502107 C96.1078028,23.7350859 96.7261649,23.744809 97.3425424,23.7502107 C111.801464,23.9506674 125.97758,30.7245357 135.126399,43.322115 C146.578567,59.0847338 146.942461,79.5065806 137.679598,95.2955732 L215.010765,201.789062 C203.269189,206.174641 192.563265,213.699547 184.265512,224.134991 L106.911947,117.645472 C89.0441416,121.56552 69.7418351,114.91693 58.3035058,99.1707864 C42.8880337,77.9477878 47.5804493,48.2450806 68.799137,32.8246859 C76.8806567,26.9568026 86.208122,23.9889113 95.4914253,23.7502107 L95.4914253,23.7502107 Z M383.17743,23.7502107 C407.248608,23.6644588 427.943212,41.8134364 430.514205,66.2746808 C432.551232,85.6474384 422.639036,103.529991 406.723862,112.571489 L423.120268,268.462222 C440.560899,273.993148 453.973624,289.412232 456.004062,308.782357 C458.747775,334.87294 439.830478,358.236304 413.74995,360.97935 C387.660201,363.730309 364.279898,344.795386 361.536172,318.715349 C359.501792,299.337312 369.412678,281.454759 385.331794,272.407981 L368.961756,116.518572 C351.511903,110.986322 338.108414,95.5718561 336.068741,76.1984369 C333.322382,50.1071918 352.241015,26.7444892 378.333397,24.0054 C379.961706,23.8319787 381.568913,23.7561525 383.17743,23.7502107 L383.17743,23.7502107 Z M96.9911773,50.6498727 C92.703537,50.5899139 88.3519421,51.8881967 84.6213557,54.6009121 C75.4263898,61.2818038 73.3900246,74.1530193 80.0700126,83.3508016 C86.7539699,92.5446138 99.6228313,94.580808 108.811857,87.8939744 C118.010117,81.2176876 120.044497,68.3477956 113.360553,59.1486898 C109.396588,53.6856767 103.259801,50.7349223 96.9911773,50.6498727 L96.9911773,50.6498727 Z M383.259178,50.6498727 C382.559067,50.6539239 381.833912,50.7032144 381.131182,50.772491 C369.822719,51.9646576 361.649567,62.0941506 362.834866,73.394703 C364.020165,84.7044923 374.153873,92.9131846 385.450468,91.7269599 C396.752329,90.5301614 404.938671,80.4046387 403.752049,69.100116 C402.637941,58.500487 393.684267,50.6162066 383.259178,50.6498457 L383.259178,50.6498727 Z M327.575209,115.642228 C332.912341,122.333019 339.418962,128.013625 346.736429,132.393924 L348.712809,151.170605 L280.95831,244.46582 C290.213922,260.246237 289.879029,280.687206 278.436082,296.43863 C263.0193,317.660305 233.295861,322.36041 212.083114,306.936045 C190.863103,291.514327 186.165422,261.812943 201.587483,240.587973 C213.024489,224.832593 232.343928,218.184665 250.223615,222.114611 L327.575209,115.642228 L327.575209,115.642228 Z M70.6449887,137.54241 C78.6243189,140.673176 87.1059966,142.323622 95.6437038,142.470669 L106.739228,157.737426 L94.668036,272.407954 C110.589136,281.454732 120.494096,299.337285 118.464319,318.715322 C115.714666,344.795359 92.3620546,363.730282 66.2775706,360.979323 C40.191777,358.236277 21.2744804,334.872913 24.0181932,308.782329 C26.0473084,289.412205 39.4567387,273.993121 56.901326,268.462195 L70.6449887,137.54241 L70.6449887,137.54241 Z M239.748424,247.910451 C233.480448,248.000119 227.319927,250.951535 223.352019,256.416533 C216.672679,265.608374 218.707734,278.482222 227.904671,285.163128 C237.100947,291.844019 249.957279,289.805205 256.641898,280.610718 C263.322547,271.410964 261.292109,258.542395 252.094511,251.86149 C248.36063,249.147451 244.034741,247.855056 239.748424,247.910451 L239.748424,247.910451 Z M71.3002627,293.160155 C60.8705573,293.118021 51.8944572,300.985746 50.780363,311.588683 C49.5944027,322.890559 57.7945833,333.016082 69.1030459,334.213528 C80.4009507,335.397782 90.5056586,327.189751 91.6916054,315.885242 C92.882183,304.580719 84.7030911,294.447283 73.3953036,293.265663 C72.6918982,293.183963 71.9990507,293.160195 71.3002627,293.160195 L71.3002627,293.160155 Z M408.721331,293.160195 C408.029145,293.160195 407.330357,293.183963 406.626304,293.265663 C395.317841,294.447283 387.11172,304.580719 388.303621,315.885242 C389.494185,327.189751 399.616026,335.397782 410.9179,334.213528 C422.222393,333.016082 430.43247,322.890559 429.241892,311.588683 C428.126475,300.985746 419.151698,293.117954 408.721331,293.160155 L408.721331,293.160195 Z" id="Icon" fill="#E7E7E7" sketch:type="MSShapeGroup"></path>
    </g>
</svg>