<?xml version="1.0" encoding="UTF-8" standalone="no"?>
<svg width="48px" height="96px" viewBox="0 0 48 96" version="1.1" xmlns="http://www.w3.org/2000/svg" xmlns:xlink="http://www.w3.org/1999/xlink" xmlns:sketch="http://www.bohemiancoding.com/sketch/ns">
    <title>toggle-icons</title>
    <description>Created with Sketch (http://www.bohemiancoding.com/sketch)</description>
    <defs></defs>
    <g id="Page 1" stroke="none" stroke-width="1" fill="none" fill-rule="evenodd" opacity="0.3">
        <g id="Hamburger" transform="translate(14.000000, 14.000000)" fill="#000000">
            <path d="M1.99079514,0 C0.891309342,0 0,0.887729645 0,2 L0,2 C0,3.1045695 0.898212381,4 1.99079514,4 L18.0092049,4 C19.1086907,4 20,3.11227036 20,2 L20,2 C20,0.8954305 19.1017876,0 18.0092049,0 L1.99079514,0 Z M1.99079514,0" id="Rectangle 1"></path>
            <path d="M1.99079514,8 C0.891309342,8 0,8.88772964 0,10 L0,10 C0,11.1045695 0.898212381,12 1.99079514,12 L18.0092049,12 C19.1086907,12 20,11.1122704 20,10 L20,10 C20,8.8954305 19.1017876,8 18.0092049,8 L1.99079514,8 Z M1.99079514,8" id="Rectangle 1 copy"></path>
            <path d="M1.99079514,16 C0.891309342,16 0,16.8877296 0,18 L0,18 C0,19.1045695 0.898212381,20 1.99079514,20 L18.0092049,20 C19.1086907,20 20,19.1122704 20,18 L20,18 C20,16.8954305 19.1017876,16 18.0092049,16 L1.99079514,16 Z M1.99079514,16" id="Rectangle 1 copy 2"></path>
        </g>
        <g id="x" transform="translate(14.000000, 62.000000)" fill="#000000">
            <path d="M1.51471863,1.51471863 C2.30121254,0.728224715 3.56366317,0.735236046 4.34664352,1.51821639 L10,7.17157288 L15.6533565,1.51821639 C16.4367745,0.734798391 17.7042328,0.733670042 18.4852814,1.51471863 C19.2717753,2.30121254 19.264764,3.56366317 18.4817836,4.34664352 L12.8284271,10 L18.4817836,15.6533565 C19.2652016,16.4367745 19.26633,17.7042328 18.4852814,18.4852814 C17.6987875,19.2717753 16.4363368,19.264764 15.6533565,18.4817836 L10,12.8284271 L4.34664352,18.4817836 C3.56322552,19.2652016 2.29576721,19.26633 1.51471863,18.4852814 C0.728224715,17.6987875 0.735236046,16.4363368 1.51821639,15.6533565 L7.17157288,10 L1.51821639,4.34664352 C0.734798391,3.56322552 0.733670042,2.29576721 1.51471863,1.51471863 Z M1.51471863,1.51471863" id="Rectangle 1"></path>
        </g>
    </g>
</svg>