<?xml version="1.0" encoding="utf-8"?>
<!-- Generator: Adobe Illustrator 15.0.0, SVG Export Plug-In . SVG Version: 6.00 Build 0)  -->
<!DOCTYPE svg PUBLIC "-//W3C//DTD SVG 1.1//EN" "http://www.w3.org/Graphics/SVG/1.1/DTD/svg11.dtd">
<svg version="1.1" id="docs" xmlns="http://www.w3.org/2000/svg" xmlns:xlink="http://www.w3.org/1999/xlink" x="0px" y="0px"
	 width="20px" height="20px" viewBox="0 0 20 20" enable-background="new 0 0 20 20" xml:space="preserve">
<path fill="#FFFFFF" d="M20,15.125c-4.562,1.125-7.935,4.064-8.875,4.625C10.812,19.937,10.625,20,10,20
	c-0.001-2.56,0.844-15.688,1.367-16.415C12.033,3.001,16.334,0,20,0C20,2.75,20,12.916,20,15.125z"/>
<path fill="#FFFFFF" d="M0,15.125c4.562,1.125,7.935,4.064,8.875,4.625C9.188,19.937,9.375,20,10,20
	c0.001-2.56-0.844-15.688-1.367-16.415C7.967,3.001,3.666,0,0,0C0,2.75,0,12.916,0,15.125z"/>
</svg>
