<?xml version="1.0" encoding="UTF-8" standalone="no"?>
<svg width="294px" height="112px" viewBox="0 0 294 112" version="1.1" xmlns="http://www.w3.org/2000/svg" xmlns:xlink="http://www.w3.org/1999/xlink" xmlns:sketch="http://www.bohemiancoding.com/sketch/ns">
    <title>home-devices</title>
    <description>Created with Sketch (http://www.bohemiancoding.com/sketch)</description>
    <defs></defs>
    <g id="Page-1" stroke="none" stroke-width="1" fill="none" fill-rule="evenodd" sketch:type="MSPage">
        <g id="Imported-Layers" sketch:type="MSLayerGroup">
            <g id="Phone" transform="translate(222.000000, 0.000000)" sketch:type="MSShapeGroup">
                <path d="M1.998,17.752 L72,17.752 L72,94.217 L1.998,94.217 L1.998,17.752 Z" id="Fill-5" fill="#272727"></path>
                <path d="M36,106 C38.209,106 40,104.209 40,102 C40,99.791 38.209,98 36,98 C33.791,98 32,99.791 32,102 C32,104.209 33.791,106 36,106 L36,106 Z M64,0 L8,0 C3.582,0 0,3.582 0,8 L0,104 C0,108.418 3.582,112 8,112 L64,112 C68.418,112 72,108.418 72,104 L72,8 C72,3.582 68.418,0 64,0 L64,0 Z M68,104 C68,106.209 66.209,108 64,108 L8,108 C5.791,108 4,106.209 4,104 L4,96 L68,96 L68,104 L68,104 Z M4,20 L68,20 L68,92 L4,92 L4,20 Z M68,16 L4,16 L4,8 C4,5.791 5.791,4 8,4 L64,4 C66.209,4 68,5.791 68,8 L68,16 L68,16 Z M40,8 L32,8 C30.894,8 30,8.895 30,10 C30,11.105 30.894,12 32,12 L40,12 C41.106,12 42,11.105 42,10 C42,8.895 41.106,8 40,8 L40,8 Z" id="Fill-13" fill="#000000"></path>
            </g>
            <g id="tablet" transform="translate(123.000000, 0.000000)" sketch:type="MSShapeGroup">
                <path d="M8,8 L80,8 L80,96 L8,96 L8,8 Z" id="Fill-7" fill="#272727"></path>
                <path d="M44,100 C42.894,100 42,100.895 42,102 C42,103.106 42.894,104 44,104 C45.105,104 46,103.106 46,102 C46,100.895 45.105,100 44,100 L44,100 Z M80,0 L8,0 C3.582,0 0,3.582 0,8 L0,104 C0,108.418 3.582,112 8,112 L80,112 C84.418,112 88,108.418 88,104 L88,8 C88,3.582 84.418,0 80,0 L80,0 Z M84,104 C84,106.209 82.209,108 80,108 L8,108 C5.791,108 4,106.209 4,104 L4,8 C4,5.791 5.791,4 8,4 L80,4 C82.209,4 84,5.791 84,8 L84,104 L84,104 Z M8,96 L80,96 L80,8 L8,8 L8,96 Z M12,12 L76,12 L76,92 L12,92 L12,12 Z" id="Fill-15" fill="#000000"></path>
            </g>
            <g id="Desktop" transform="translate(0.000000, 12.000000)" sketch:type="MSShapeGroup">
                <path d="M2.766,70 L2.766,7.959 C2.766,4.094 5.9,0.959 9.766,0.959 L103.242,0.959 C107.108,0.959 110.242,4.094 110.242,7.959 L110.242,70" id="Fill-11" fill="#272727"></path>
                <path d="M104,0 L8,0 C3.582,0 0,3.582 0,8 L0,76 C0,80.418 3.582,84 8,84 L48,84 L48,96 L40,96 C38.895,96 38,96.895 38,98 C38,99.105 38.895,100 40,100 L72,100 C73.105,100 74,99.105 74,98 C74,96.895 73.105,96 72,96 L64,96 L64,84 L104,84 C108.418,84 112,80.418 112,76 L112,8 C112,3.582 108.418,0 104,0 L104,0 Z M52,84 L60,84 L60,96 L52,96 L52,84 Z M108,76 C108,78.209 106.209,80 104,80 L8,80 C5.791,80 4,78.209 4,76 L4,72 L108,72 L108,76 L108,76 Z M108,68 L4,68 L4,8 C4,5.791 5.791,4 8,4 L104,4 C106.209,4 108,5.791 108,8 L108,68 L108,68 Z" id="Fill-18" fill="#000000"></path>
            </g>
        </g>
        <g id="MontageJS" sketch:type="MSLayerGroup" transform="translate(38.000000, 34.000000)" fill="#4D4D4D">
            <path d="M119.790962,3.91693174 C118.780672,3.92724655 117.763056,4.23995808 116.882861,4.87961789 C114.62995,6.51645457 114.130008,9.67050441 115.766369,11.9235715 C115.962165,12.1929696 116.181011,12.4378659 116.415817,12.6563438 L115.455223,21.7959344 C114.14102,22.582288 113.200398,23.9578467 113.02798,25.5985116 C112.737132,28.3679254 114.74684,30.8490845 117.516258,31.1401398 C120.285584,31.4313825 122.765415,29.4208783 123.056963,26.6510899 C123.229007,25.0098657 122.593791,23.4707631 121.471884,22.4271452 L122.030854,17.1133758 L125.168813,21.4346817 C124.550115,23.4395854 125.233301,25.7013797 127.024814,27.0033812 C129.277445,28.6403115 132.430383,28.1397855 134.06721,25.8865798 C135.036203,24.5522794 135.256543,22.9024677 134.806717,21.4378552 L137.944676,17.1153363 L138.503693,22.4271452 C137.381833,23.4707631 136.74657,25.0098657 136.918661,26.6510899 C137.209742,29.4208783 139.691814,31.4313825 142.461232,31.1401398 C145.230651,30.8490845 147.238725,28.3679254 146.947924,25.5985116 C146.775086,23.9578467 145.834557,22.582288 144.520728,21.7959344 L143.560133,12.6563438 C144.681993,11.6131933 145.31763,10.0740429 145.144792,8.43263235 C144.853991,5.66251795 142.37192,3.65406701 139.602594,3.94530966 C136.833082,4.23608489 134.825009,6.71691713 135.116276,9.48731159 C135.151459,9.81962614 135.21632,10.140366 135.310859,10.4477103 L129.989702,17.775252 L124.664672,10.4446774 C125.114124,8.98071869 124.894624,7.33039274 123.925631,5.99599962 C122.928314,4.62286692 121.367687,3.90078229 119.790962,3.91693174 L119.790962,3.91693174 Z M119.759184,5.59778154 C119.802814,5.59671096 119.846583,5.59739919 119.890212,5.59778154 C120.913661,5.6119705 121.917091,6.09144628 122.564673,6.9831427 C123.375294,8.09887061 123.401051,9.54439339 122.745397,10.6619881 L128.219141,18.1999334 C127.388035,18.5103585 126.630236,19.0429951 126.042895,19.7816488 L120.567565,12.2439845 C119.302825,12.5214578 117.936547,12.0508497 117.126906,10.9362879 C116.03575,9.43405711 116.367894,7.33160575 117.86982,6.24010154 C118.441856,5.82475424 119.102083,5.61467753 119.759184,5.59778154 L119.759184,5.59778154 Z M140.122508,5.59778154 C141.826342,5.59171175 143.291171,6.87635367 143.473154,8.60779775 C143.617341,9.97906268 142.915725,11.2448462 141.789199,11.884832 L142.949788,22.91927 C144.184291,23.3107664 145.133686,24.4021779 145.277407,25.7732565 C145.471615,27.6200303 144.132589,29.273763 142.286527,29.4679244 C140.439813,29.662646 138.784881,28.3223723 138.590671,26.476345 C138.446671,25.1047064 139.148195,23.8389229 140.275001,23.1985633 L139.116278,12.1642189 C137.881122,11.7726289 136.932381,10.6815443 136.788006,9.31023253 C136.59361,7.46341186 137.932731,5.80972602 139.779632,5.61584465 C139.894889,5.60356934 140.008652,5.59820212 140.122508,5.59778154 L140.122508,5.59778154 Z M119.865342,7.50182452 C119.561849,7.49758045 119.253829,7.589477 118.989767,7.78149156 C118.338918,8.25438616 118.194778,9.16545142 118.667608,9.81649948 C119.14072,10.4672665 120.051618,10.6113948 120.702047,10.1380796 C121.353129,9.66551094 121.497128,8.75453936 121.024018,8.10339762 C120.743436,7.71670831 120.309055,7.5078446 119.865342,7.50182452 L119.865342,7.50182452 Z M140.128294,7.50182452 C140.078738,7.50211128 140.027409,7.50560021 139.977668,7.51050383 C139.177219,7.59488915 138.598698,8.31188663 138.682597,9.11177539 C138.766496,9.91231798 139.483792,10.4933551 140.283401,10.4093904 C141.083382,10.3246772 141.662837,9.60796077 141.578844,8.80779097 C141.499984,8.05751577 140.866215,7.49944153 140.128294,7.50182261 L140.128294,7.50182452 Z M136.186807,12.1021886 C136.564586,12.5757838 137.025145,12.9778751 137.543099,13.2879265 L137.682993,14.6169992 L132.887116,21.220729 C133.542257,22.3377167 133.518553,23.784593 132.708585,24.8995285 C131.617336,26.4016657 129.513417,26.7343539 128.011912,25.6425687 C126.509893,24.5509708 126.177376,22.4486131 127.268998,20.9462428 C128.078546,19.8310272 129.446037,19.3604659 130.711617,19.6386399 L136.186807,12.1021886 L136.186807,12.1021886 Z M118.000475,13.6523526 C118.565277,13.873958 119.165637,13.9907818 119.769963,14.0011903 L120.555339,15.0818196 L119.700902,23.1985614 C120.827848,23.8389209 121.528952,25.1047045 121.385278,26.4763431 C121.190649,28.3223704 119.537678,29.6626441 117.691336,29.4679225 C115.844901,29.273761 114.505875,27.6200284 114.700084,25.7732545 C114.843711,24.402176 115.792873,23.3107645 117.027655,22.9192681 L118.000475,13.6523526 L118.000475,13.6523526 Z M129.97015,21.4645508 C129.526483,21.4708978 129.090422,21.6798084 128.809561,22.0666382 C128.336776,22.7172657 128.480824,23.6285173 129.131812,24.1014129 C129.782753,24.5743075 130.692765,24.4299938 131.165924,23.779179 C131.638801,23.1279913 131.49508,22.2171134 130.844045,21.7442179 C130.579749,21.5521096 130.273549,21.4606298 129.97015,21.4645508 L129.97015,21.4645508 Z M118.046858,24.6674677 C117.30861,24.6644854 116.673253,25.2213877 116.594394,25.9718971 C116.510448,26.7718796 117.090883,27.488596 117.891332,27.5733551 C118.691033,27.6571802 119.406276,27.0761899 119.490221,26.2760211 C119.574494,25.4758513 118.995552,24.7585747 118.195151,24.6749359 C118.145362,24.6691529 118.09632,24.6674706 118.046858,24.6674706 L118.046858,24.6674677 Z M141.930586,24.6674706 C141.881591,24.6674706 141.832128,24.6691529 141.782293,24.6749359 C140.981845,24.7585747 140.400989,25.4758513 140.485356,26.2760211 C140.569628,27.0761899 141.286084,27.6571802 142.086066,27.5733551 C142.886234,27.488596 143.467369,26.7718796 143.383096,25.9718971 C143.304143,25.2213877 142.66888,24.6644806 141.930586,24.6674677 L141.930586,24.6674706 Z" id="Icon-copy" sketch:type="MSShapeGroup"></path>
            <path d="M6.79096167,-0.0830682576 C5.78067186,-0.0727534457 4.76305605,0.239958083 3.88286143,0.879617893 C1.62995044,2.51645457 1.13000808,5.67050441 2.76636857,7.92357153 C2.96216455,8.19296964 3.18101076,8.43786589 3.41581725,8.65634376 L2.45522303,17.7959344 C1.14102001,18.582288 0.200397876,19.9578467 0.0279799021,21.5985116 C-0.262867679,24.3679254 1.74683955,26.8490845 4.5162581,27.1401398 C7.28558394,27.4313825 9.76541541,25.4208783 10.0569625,22.6510899 C10.2290068,21.0098657 9.59379062,19.4707631 8.47188401,18.4271452 L9.03085387,13.1133758 L12.1688132,17.4346817 C11.5501154,19.4395854 12.2333013,21.7013797 14.024814,23.0033812 C16.277445,24.6403115 19.4303832,24.1397855 21.06721,21.8865798 C22.0362034,20.5522794 22.2565433,18.9024677 21.806717,17.4378552 L24.9446764,13.1153363 L25.5036931,18.4271452 C24.3818333,19.4707631 23.7465702,21.0098657 23.9186614,22.6510899 C24.2097421,25.4208783 26.6918136,27.4313825 29.4612322,27.1401398 C32.2306507,26.8490845 34.2387248,24.3679254 33.947924,21.5985116 C33.7750856,19.9578467 32.8345571,18.582288 31.5207277,17.7959344 L30.5601335,8.65634376 C31.6819933,7.61319329 32.31763,6.07404287 32.1447915,4.43263235 C31.8539908,1.66251795 29.3719202,-0.345932986 26.6025944,-0.0546903374 C23.8330822,0.23608489 21.8250091,2.71691713 22.1162762,5.48731159 C22.1514593,5.81962614 22.2163201,6.14036603 22.3108585,6.44771034 L16.9897017,13.775252 L11.6646717,6.44467736 C12.1141244,4.98071869 11.8946245,3.33039274 10.9256311,1.99599962 C9.92831418,0.62286692 8.36768687,-0.0992177107 6.79096167,-0.0830682576 L6.79096167,-0.0830682576 Z M6.75918447,1.59778154 C6.80281362,1.59671096 6.84658324,1.59739919 6.89021239,1.59778154 C7.91366052,1.6119705 8.91709069,2.09144628 9.56467299,2.9831427 C10.3752936,4.09887061 10.4010512,5.54439339 9.7453965,6.66198811 L15.2191406,14.1999334 C14.3880347,14.5103585 13.6302357,15.0429951 13.0428945,15.7816488 L7.56756503,8.24398452 C6.30282539,8.52145783 4.93654721,8.05084968 4.12690616,6.93628793 C3.03575039,5.43405711 3.36789438,3.33160575 4.86982006,2.24010154 C5.44185554,1.82475424 6.10208297,1.61467753 6.75918447,1.59778154 L6.75918447,1.59778154 Z M27.1225079,1.59778154 C28.8263419,1.59171175 30.2911712,2.87635367 30.4731543,4.60779775 C30.6173414,5.97906268 29.9157249,7.2448462 28.7891987,7.88483196 L29.949788,18.91927 C31.184291,19.3107664 32.1336859,20.4021779 32.2774068,21.7732565 C32.4716154,23.6200303 31.1325895,25.273763 29.2865274,25.4679244 C27.4398126,25.662646 25.784881,24.3223723 25.5906714,22.476345 C25.4466715,21.1047064 26.1481953,19.8389229 27.2750006,19.1985633 L26.1162776,8.16421893 C24.881122,7.77262887 23.9323807,6.68154429 23.7880062,5.31023253 C23.5936102,3.46341186 24.9327308,1.80972602 26.7796319,1.61584465 C26.8948888,1.60356934 27.008652,1.59820212 27.1225079,1.59778154 L27.1225079,1.59778154 Z M6.86534165,3.50182452 C6.56184894,3.49758045 6.25382932,3.589477 5.98976664,3.78149156 C5.33891794,4.25438616 5.19477758,5.16545142 5.66760821,5.81649948 C6.14071981,6.46726652 7.05161843,6.61139477 7.70204665,6.13807959 C8.35312853,5.66551094 8.49712841,4.75453936 8.02401777,4.10339762 C7.74343576,3.71670831 7.30905465,3.5078446 6.86534165,3.50182452 L6.86534165,3.50182452 Z M27.1282943,3.50182452 C27.0787382,3.50211128 27.0274094,3.50560021 26.977668,3.51050383 C26.1772193,3.59488915 25.5986978,4.31188663 25.682597,5.11177539 C25.7664962,5.91231798 26.4837921,6.49335513 27.2834007,6.4093904 C28.0833821,6.32467722 28.6628372,5.60796077 28.5788444,4.80779097 C28.4999843,4.05751577 27.8662149,3.49944153 27.1282943,3.50182261 L27.1282943,3.50182452 Z M23.1868072,8.10218859 C23.5645862,8.57578385 24.0251454,8.97787512 24.5430989,9.28792646 L24.6829933,10.6169992 L19.8871159,17.220729 C20.5422574,18.3377167 20.5185526,19.784593 19.7085847,20.8995285 C18.6173362,22.4016657 16.5134174,22.7343539 15.0119122,21.6425687 C13.5098929,20.5509708 13.1773762,18.4486131 14.2689983,16.9462428 C15.0785457,15.8310272 16.4460366,15.3604659 17.7116172,15.6386399 L23.1868072,8.10218859 L23.1868072,8.10218859 Z M5.00047527,9.65235256 C5.56527745,9.87395804 6.16563737,9.99078182 6.76996323,10.0011903 L7.55533942,11.0818196 L6.70090238,19.1985614 C7.82784812,19.8389209 8.52895243,21.1047045 8.38527843,22.4763431 C8.19064929,24.3223704 6.53767774,25.6626441 4.69133564,25.4679225 C2.84490083,25.273761 1.50587487,23.6200284 1.70008352,21.7732545 C1.8437107,20.402176 2.7928725,19.3107645 4.02765545,18.9192681 L5.00047527,9.65235256 L5.00047527,9.65235256 Z M16.9701502,17.4645508 C16.526483,17.4708978 16.0904219,17.6798084 15.8095608,18.0666382 C15.3367761,18.7172657 15.4808237,19.6285173 16.131812,20.1014129 C16.7827534,20.5743075 17.6927651,20.4299938 18.1659236,19.779179 C18.638801,19.1279913 18.4950802,18.2171134 17.8440451,17.7442179 C17.5797493,17.5521096 17.2735492,17.4606298 16.9701502,17.4645508 L16.9701502,17.4645508 Z M5.04685764,20.6674677 C4.30861017,20.6644854 3.67325347,21.2213877 3.59439437,21.9718971 C3.51044836,22.7718796 4.09088302,23.488596 4.89133169,23.5733551 C5.69103305,23.6571802 6.40627617,23.0761899 6.49022123,22.2760211 C6.57449407,21.4758513 5.99555213,20.7585747 5.19515124,20.6749359 C5.14536199,20.6691529 5.09632006,20.6674706 5.04685764,20.6674706 L5.04685764,20.6674677 Z M28.9305858,20.6674706 C28.8815907,20.6674706 28.8321283,20.6691529 28.7822932,20.6749359 C27.9818445,20.7585747 27.4009894,21.4758513 27.4853559,22.2760211 C27.5696277,23.0761899 28.2860836,23.6571802 29.0860659,23.5733551 C29.8862336,23.488596 30.4673688,22.7718796 30.3830959,21.9718971 C30.3041432,21.2213877 29.6688801,20.6644806 28.9305858,20.6674677 L28.9305858,20.6674706 Z" id="Icon-copy-2" sketch:type="MSShapeGroup"></path>
            <path d="M210.790962,8.91693174 C209.780672,8.92724655 208.763056,9.23995808 207.882861,9.87961789 C205.62995,11.5164546 205.130008,14.6705044 206.766369,16.9235715 C206.962165,17.1929696 207.181011,17.4378659 207.415817,17.6563438 L206.455223,26.7959344 C205.14102,27.582288 204.200398,28.9578467 204.02798,30.5985116 C203.737132,33.3679254 205.74684,35.8490845 208.516258,36.1401398 C211.285584,36.4313825 213.765415,34.4208783 214.056963,31.6510899 C214.229007,30.0098657 213.593791,28.4707631 212.471884,27.4271452 L213.030854,22.1133758 L216.168813,26.4346817 C215.550115,28.4395854 216.233301,30.7013797 218.024814,32.0033812 C220.277445,33.6403115 223.430383,33.1397855 225.06721,30.8865798 C226.036203,29.5522794 226.256543,27.9024677 225.806717,26.4378552 L228.944676,22.1153363 L229.503693,27.4271452 C228.381833,28.4707631 227.74657,30.0098657 227.918661,31.6510899 C228.209742,34.4208783 230.691814,36.4313825 233.461232,36.1401398 C236.230651,35.8490845 238.238725,33.3679254 237.947924,30.5985116 C237.775086,28.9578467 236.834557,27.582288 235.520728,26.7959344 L234.560133,17.6563438 C235.681993,16.6131933 236.31763,15.0740429 236.144792,13.4326323 C235.853991,10.662518 233.37192,8.65406701 230.602594,8.94530966 C227.833082,9.23608489 225.825009,11.7169171 226.116276,14.4873116 C226.151459,14.8196261 226.21632,15.140366 226.310859,15.4477103 L220.989702,22.775252 L215.664672,15.4446774 C216.114124,13.9807187 215.894624,12.3303927 214.925631,10.9959996 C213.928314,9.62286692 212.367687,8.90078229 210.790962,8.91693174 L210.790962,8.91693174 Z M210.759184,10.5977815 C210.802814,10.596711 210.846583,10.5973992 210.890212,10.5977815 C211.913661,10.6119705 212.917091,11.0914463 213.564673,11.9831427 C214.375294,13.0988706 214.401051,14.5443934 213.745397,15.6619881 L219.219141,23.1999334 C218.388035,23.5103585 217.630236,24.0429951 217.042895,24.7816488 L211.567565,17.2439845 C210.302825,17.5214578 208.936547,17.0508497 208.126906,15.9362879 C207.03575,14.4340571 207.367894,12.3316057 208.86982,11.2401015 C209.441856,10.8247542 210.102083,10.6146775 210.759184,10.5977815 L210.759184,10.5977815 Z M231.122508,10.5977815 C232.826342,10.5917118 234.291171,11.8763537 234.473154,13.6077978 C234.617341,14.9790627 233.915725,16.2448462 232.789199,16.884832 L233.949788,27.91927 C235.184291,28.3107664 236.133686,29.4021779 236.277407,30.7732565 C236.471615,32.6200303 235.132589,34.273763 233.286527,34.4679244 C231.439813,34.662646 229.784881,33.3223723 229.590671,31.476345 C229.446671,30.1047064 230.148195,28.8389229 231.275001,28.1985633 L230.116278,17.1642189 C228.881122,16.7726289 227.932381,15.6815443 227.788006,14.3102325 C227.59361,12.4634119 228.932731,10.809726 230.779632,10.6158446 C230.894889,10.6035693 231.008652,10.5982021 231.122508,10.5977815 L231.122508,10.5977815 Z M210.865342,12.5018245 C210.561849,12.4975804 210.253829,12.589477 209.989767,12.7814916 C209.338918,13.2543862 209.194778,14.1654514 209.667608,14.8164995 C210.14072,15.4672665 211.051618,15.6113948 211.702047,15.1380796 C212.353129,14.6655109 212.497128,13.7545394 212.024018,13.1033976 C211.743436,12.7167083 211.309055,12.5078446 210.865342,12.5018245 L210.865342,12.5018245 Z M231.128294,12.5018245 C231.078738,12.5021113 231.027409,12.5056002 230.977668,12.5105038 C230.177219,12.5948891 229.598698,13.3118866 229.682597,14.1117754 C229.766496,14.912318 230.483792,15.4933551 231.283401,15.4093904 C232.083382,15.3246772 232.662837,14.6079608 232.578844,13.807791 C232.499984,13.0575158 231.866215,12.4994415 231.128294,12.5018226 L231.128294,12.5018245 Z M227.186807,17.1021886 C227.564586,17.5757838 228.025145,17.9778751 228.543099,18.2879265 L228.682993,19.6169992 L223.887116,26.220729 C224.542257,27.3377167 224.518553,28.784593 223.708585,29.8995285 C222.617336,31.4016657 220.513417,31.7343539 219.011912,30.6425687 C217.509893,29.5509708 217.177376,27.4486131 218.268998,25.9462428 C219.078546,24.8310272 220.446037,24.3604659 221.711617,24.6386399 L227.186807,17.1021886 L227.186807,17.1021886 Z M209.000475,18.6523526 C209.565277,18.873958 210.165637,18.9907818 210.769963,19.0011903 L211.555339,20.0818196 L210.700902,28.1985614 C211.827848,28.8389209 212.528952,30.1047045 212.385278,31.4763431 C212.190649,33.3223704 210.537678,34.6626441 208.691336,34.4679225 C206.844901,34.273761 205.505875,32.6200284 205.700084,30.7732545 C205.843711,29.402176 206.792873,28.3107645 208.027655,27.9192681 L209.000475,18.6523526 L209.000475,18.6523526 Z M220.97015,26.4645508 C220.526483,26.4708978 220.090422,26.6798084 219.809561,27.0666382 C219.336776,27.7172657 219.480824,28.6285173 220.131812,29.1014129 C220.782753,29.5743075 221.692765,29.4299938 222.165924,28.779179 C222.638801,28.1279913 222.49508,27.2171134 221.844045,26.7442179 C221.579749,26.5521096 221.273549,26.4606298 220.97015,26.4645508 L220.97015,26.4645508 Z M209.046858,29.6674677 C208.30861,29.6644854 207.673253,30.2213877 207.594394,30.9718971 C207.510448,31.7718796 208.090883,32.488596 208.891332,32.5733551 C209.691033,32.6571802 210.406276,32.0761899 210.490221,31.2760211 C210.574494,30.4758513 209.995552,29.7585747 209.195151,29.6749359 C209.145362,29.6691529 209.09632,29.6674706 209.046858,29.6674706 L209.046858,29.6674677 Z M232.930586,29.6674706 C232.881591,29.6674706 232.832128,29.6691529 232.782293,29.6749359 C231.981845,29.7585747 231.400989,30.4758513 231.485356,31.2760211 C231.569628,32.0761899 232.286084,32.6571802 233.086066,32.5733551 C233.886234,32.488596 234.467369,31.7718796 234.383096,30.9718971 C234.304143,30.2213877 233.66888,29.6644806 232.930586,29.6674677 L232.930586,29.6674706 Z" id="Icon-copy-2" sketch:type="MSShapeGroup"></path>
        </g>
    </g>
</svg>