<?xml version="1.0" encoding="UTF-8" standalone="no"?>
<svg width="240px" height="240px" viewBox="0 0 240 240" version="1.1" xmlns="http://www.w3.org/2000/svg" xmlns:xlink="http://www.w3.org/1999/xlink" xmlns:sketch="http://www.bohemiancoding.com/sketch/ns">
    <title>home-initialize</title>
    <description>Created with Sketch (http://www.bohemiancoding.com/sketch)</description>
    <defs></defs>
    <g id="Page-1" stroke="none" stroke-width="1" fill="none" fill-rule="evenodd" sketch:type="MSPage">
        <g id="Workflow" sketch:type="MSLayerGroup" transform="translate(-69.000000, -325.000000)">
            <g id="Initialize" transform="translate(72.000000, 328.000000)" sketch:type="MSShapeGroup">
                <path d="M58.9633455,100.906692 C50.6446281,105.666276 92.2845928,104.552701 98.9980586,123.554467 C105.711524,142.556233 98.9980597,169 98.9980597,169 L101.898558,169 C101.898558,169 113.573912,119.052181 106.860447,104.372715 C100.146982,89.6932495 67.2820629,96.1471086 58.9633455,100.906692 Z" id="Rectangle-21" fill="#BBEB86"></path>
                <path d="M162.633916,55.1725657 C136.754026,55.1725548 112.652856,55.1725657 112.652856,102.367926 C112.652855,149.563286 101.042248,169.874498 101.042248,169.874498 L105.899472,169.874498 C105.899472,169.874498 119.989383,110.557951 132.599985,91.786633 C145.210588,73.0153156 188.513806,55.1725765 162.633916,55.1725657 Z" id="Rectangle-21-copy" fill="#9FCE6C"></path>
                <path d="M95.8236959,190 C112.284315,190 134.60917,183.601233 134.60917,173.775094 C134.60917,169.587877 137.910202,157.369399 125.325103,158.025428 C112.740004,158.681457 114.741006,165.63744 105.000001,165.63744 C88.5393822,165.637442 75,163.948956 75,173.775094 C75,183.601233 79.3630773,190 95.8236959,190 Z" id="Oval-6" fill="#D8D7D7"></path>
                <path d="M234,117 C234,52.3826811 181.617319,0 117,0 C52.3826811,0 0,52.3826811 0,117 C0,181.617319 52.3826811,234 117,234 C181.617319,234 234,181.617319 234,117 Z" id="Oval-3" stroke="#BBEA86" stroke-width="6"></path>
            </g>
        </g>
    </g>
</svg>