<?xml version="1.0" encoding="UTF-8" standalone="no"?>
<svg width="120px" height="120px" viewBox="0 0 120 120" version="1.1" xmlns="http://www.w3.org/2000/svg" xmlns:xlink="http://www.w3.org/1999/xlink" xmlns:sketch="http://www.bohemiancoding.com/sketch/ns">
    <title>home-components</title>
    <description>Created with Sketch (http://www.bohemiancoding.com/sketch)</description>
    <defs></defs>
    <g id="Page-1" stroke="none" stroke-width="1" fill="none" fill-rule="evenodd" sketch:type="MSPage">
        <g id="Features" sketch:type="MSLayerGroup" transform="translate(-129.000000, -115.000000)">
            <g id="Components" transform="translate(130.000000, 126.000000)" sketch:type="MSShapeGroup">
                <g id="Arrow" transform="translate(16.000000, 28.000000)">
                    <path d="M42.9999992,0 L42.9999991,35" id="Line" stroke="#BFBFBF" stroke-width="2"></path>
                    <path d="M42.9545718,0 C42.9545718,0 44.0592015,15.492862 35.3743398,19.1434398 C26.6894781,22.7940177 24.4826811,19.7470137 14.4725593,22.7940177 C4.46243766,25.8410222 4,35 4,35" id="Line-copy" stroke="#BFBFBF" stroke-width="2"></path>
                    <path d="M81.9545718,0 C81.9545718,0 83.0592015,15.492862 74.3743398,19.1434398 C65.6894781,22.7940177 63.4826811,19.7470137 53.4725593,22.7940177 C43.4624377,25.8410222 43,35 43,35" id="Line-copy-2" stroke="#BFBFBF" stroke-width="2" transform="translate(62.500000, 17.500000) scale(-1, 1) translate(-62.500000, -17.500000) "></path>
                    <path d="M47,31 L43,39 L39,31 L47,31 Z" id="Triangle-4-copy" fill="#BFBFBF"></path>
                    <path d="M9,31 L5,39 L1,31 L9,31 Z" id="Triangle-4-copy-2" fill="#BFBFBF"></path>
                    <path d="M85,31 L81,39 L77,31 L85,31 Z" id="Triangle-4-copy-2" fill="#BFBFBF"></path>
                </g>
                <g id="Blues" transform="translate(0.000000, 82.000000)" stroke="#4DACFF" stroke-width="2" fill="#A8D4FA">
                    <rect id="Rectangle-1" x="42" y="0" width="34" height="16" rx="6"></rect>
                    <rect id="Rectangle-1-copy" x="84" y="0" width="34" height="16" rx="6"></rect>
                    <rect id="Rectangle-1-copy" x="0" y="0" width="34" height="16" rx="6"></rect>
                </g>
                <rect id="Orig" stroke="#BFBFBF" stroke-width="2" fill="#E6E6E6" x="42" y="0" width="34" height="16" rx="6"></rect>
            </g>
        </g>
    </g>
</svg>