<?xml version="1.0" encoding="UTF-8" standalone="no"?>
<svg width="120px" height="104px" viewBox="0 0 120 104" version="1.1" xmlns="http://www.w3.org/2000/svg" xmlns:xlink="http://www.w3.org/1999/xlink" xmlns:sketch="http://www.bohemiancoding.com/sketch/ns">
    <title>home-components</title>
    <description>Created with Sketch (http://www.bohemiancoding.com/sketch)</description>
    <defs></defs>
    <g id="Page-1" stroke="none" stroke-width="1" fill="none" fill-rule="evenodd" sketch:type="MSPage">
        <g id="Features" sketch:type="MSLayerGroup" transform="translate(-129.000000, -115.000000)">
            <g id="Components" transform="translate(130.000000, 116.000000)" sketch:type="MSShapeGroup">
                <g id="Arrow" transform="translate(17.000000, 28.000000)">
                    <path d="M41.9999992,0 L41.9999991,35" id="Line" stroke="#BFBFBF" stroke-width="2"></path>
                    <path d="M41.9545718,0 C41.9545718,0 43.0592015,15.492862 34.3743398,19.1434398 C25.6894781,22.7940177 23.4826811,19.7470137 13.4725593,22.7940177 C3.46243766,25.8410222 3,35 3,35" id="Line-copy" stroke="#BFBFBF" stroke-width="2"></path>
                    <path d="M80.9545718,0 C80.9545718,0 82.0592015,15.492862 73.3743398,19.1434398 C64.6894781,22.7940177 62.4826811,19.7470137 52.4725593,22.7940177 C42.4624377,25.8410222 42,35 42,35" id="Line-copy-2" stroke="#BFBFBF" stroke-width="2" transform="translate(61.500000, 17.500000) scale(-1, 1) translate(-61.500000, -17.500000) "></path>
                    <path d="M46,31 L42,39 L38,31 L46,31 Z" id="Triangle-4-copy" fill="#BFBFBF"></path>
                    <path d="M8,31 L4,39 L0,31 L8,31 Z" id="Triangle-4-copy-2" fill="#BFBFBF"></path>
                    <path d="M84,31 L80,39 L76,31 L84,31 Z" id="Triangle-4-copy-2" fill="#BFBFBF"></path>
                </g>
                <g id="Blues" transform="translate(0.000000, 82.000000)" stroke="#4DACFF" stroke-width="2" fill="#A8D4FA">
                    <rect id="Rectangle-1" x="42" y="0" width="34" height="16" rx="6"></rect>
                    <rect id="Rectangle-1-copy" x="84" y="0" width="34" height="16" rx="6"></rect>
                    <rect id="Rectangle-1-copy" x="0" y="0" width="34" height="16" rx="6"></rect>
                </g>
                <rect id="Orig" stroke="#BFBFBF" stroke-width="2" fill="#E6E6E6" x="42" y="0" width="34" height="16" rx="6"></rect>
            </g>
        </g>
    </g>
</svg>