<?xml version="1.0" encoding="UTF-8" standalone="no"?>
<svg width="120px" height="100px" viewBox="0 0 120 100" version="1.1" xmlns="http://www.w3.org/2000/svg" xmlns:xlink="http://www.w3.org/1999/xlink" xmlns:sketch="http://www.bohemiancoding.com/sketch/ns">
    <title>home-templates</title>
    <description>Created with Sketch (http://www.bohemiancoding.com/sketch)</description>
    <defs>
        <path d="M20,7 L20,25 L0,25 L0,0 L16.5,0 L13,0 L20,7 Z" id="path-1"></path>
        <mask id="mask-2" sketch:name="Rectangle 5" fill="white">
            <use xlink:href="#path-1"></use>
        </mask>
        <path d="M20,7 L20,25 L0,25 L0,0 L16.5,0 L13,0 L20,7 Z" id="path-3"></path>
        <mask id="mask-4" sketch:name="Rectangle 5" fill="white">
            <use xlink:href="#path-3"></use>
        </mask>
        <path d="M20,7 L20,25 L0,25 L0,0 L16.5,0 L13,0 L20,7 Z" id="path-5"></path>
        <mask id="mask-6" sketch:name="Rectangle 5" fill="white">
            <use xlink:href="#path-5"></use>
        </mask>
    </defs>
    <g id="Page-1" stroke="none" stroke-width="1" fill="none" fill-rule="evenodd" sketch:type="MSPage">
        <g id="Features" sketch:type="MSLayerGroup" transform="translate(-369.000000, -115.000000)">
            <g id="Templates" transform="translate(369.000000, 115.000000)">
                <g id="Text" transform="translate(86.000000, 7.000000)" font-size="11.5862069" font-family="Helvetica" fill="#7E7E7E" sketch:type="MSTextLayer" font-weight="bold">
                    <text id="HTML">
                        <tspan x="0" y="11">HTML</tspan>
                    </text>
                    <text id="CSS">
                        <tspan x="0" y="45">CSS</tspan>
                    </text>
                    <text id="JS">
                        <tspan x="0" y="78">JS</tspan>
                    </text>
                </g>
                <g id="JS" transform="translate(60.000000, 70.000000)" sketch:type="MSShapeGroup">
                    <use id="Rectangle-5" fill="#EAE877" xlink:href="#path-1"></use>
                    <rect id="Rectangle-9" fill-opacity="0.250430836" fill="#000000" mask="url(#mask-2)" x="12" y="0" width="8" height="8"></rect>
                </g>
                <g id="CSS" transform="translate(60.000000, 35.000000)" sketch:type="MSShapeGroup">
                    <use id="Rectangle-5" fill="#8FC9FC" xlink:href="#path-3"></use>
                    <rect id="Rectangle-9" fill-opacity="0.250430836" fill="#000000" mask="url(#mask-4)" x="12" y="0" width="8" height="8"></rect>
                </g>
                <g id="HTML" transform="translate(60.000000, 0.000000)" sketch:type="MSShapeGroup">
                    <use id="Rectangle-5" fill="#FAB283" xlink:href="#path-5"></use>
                    <rect id="Rectangle-9" fill-opacity="0.250430836" fill="#000000" mask="url(#mask-6)" x="12" y="0" width="8" height="8"></rect>
                </g>
                <g id="Arrows" transform="translate(29.000000, 10.000000)" sketch:type="MSShapeGroup">
                    <path d="M0,4 L22,4" id="Line" stroke="#BFBFBF" stroke-width="2"></path>
                    <path d="M6,4.5 L6,73.5651855" id="Line" stroke="#BFBFBF" stroke-width="2" stroke-linecap="square"></path>
                    <path d="M5,39 L22,39" id="Line-copy" stroke="#BFBFBF" stroke-width="2"></path>
                    <path d="M5,74 L22,74" id="Line-copy-2" stroke="#BFBFBF" stroke-width="2"></path>
                    <path d="M16,8 L16,0 L24,4 L16,8 Z" id="Triangle-4" fill="#BFBFBF"></path>
                    <path d="M16,43 L16,35 L24,39 L16,43 Z" id="Triangle-4-copy" fill="#BFBFBF"></path>
                    <path d="M16,78 L16,70 L24,74 L16,78 Z" id="Triangle-4-copy-2" fill="#BFBFBF"></path>
                </g>
                <g id="Folder" sketch:type="MSShapeGroup">
                    <rect id="Path-copy" fill="#A6A6A6" x="2" y="0" width="10" height="10" rx="2"></rect>
                    <rect fill="#BFBFBF" x="0" y="4" width="25" height="20" rx="3"></rect>
                </g>
            </g>
        </g>
    </g>
</svg>