<?xml version="1.0" encoding="UTF-8" standalone="no"?>
<svg width="240px" height="240px" viewBox="0 0 240 240" version="1.1" xmlns="http://www.w3.org/2000/svg" xmlns:xlink="http://www.w3.org/1999/xlink" xmlns:sketch="http://www.bohemiancoding.com/sketch/ns">
    <title>home-collaborate</title>
    <description>Created with Sketch (http://www.bohemiancoding.com/sketch)</description>
    <defs></defs>
    <g id="Page-1" stroke="none" stroke-width="1" fill="none" fill-rule="evenodd" sketch:type="MSPage">
        <g id="Workflow" sketch:type="MSLayerGroup" transform="translate(-549.000000, -325.000000)">
            <g id="Collaborate" transform="translate(552.000000, 328.000000)" sketch:type="MSShapeGroup">
                <path d="M109.186873,109.693943 C105.390088,113.261281 102.817417,120.551438 103.724562,128.834583 C105.166399,142 107.366103,143.233963 113.849214,149.741392 C115.564443,151.463055 115.848584,162.093869 111.889245,163.338694 C97.9151108,167.732192 90.313784,179 91.0487706,179 L155,179 C147.933452,166.194812 138.700186,166.356473 134.987852,163.338694 C130.997812,160.095166 132.754079,150.322179 133.362132,149.741393 C141.451199,142.015078 140.748326,142.015078 143.076918,128.834583 C144.411848,121.278506 142.458721,113.675262 137.189274,109.693943 C133.811109,107.141578 128.721937,105.030155 124.260859,105.030155 C123.499734,105.030155 114.897381,104.328533 109.186873,109.693943 Z" id="Oval-7-copy" fill="#F6A4AE" transform="translate(123.000000, 142.000000) scale(-1, 1) translate(-123.000000, -142.000000) "></path>
                <path d="M160.935136,88.0447199 C158.443495,90.3586688 156.75518,95.0874192 157.350494,100.46027 C158.2967,109 159.740255,109.800408 163.994797,114.021444 C165.120416,115.138198 165.306883,122.033861 162.708567,122.841315 C153.538041,125.691152 148.549671,133 149.032006,133 L191,133 C186.362578,124.693932 180.303247,124.798793 177.867028,122.841315 C175.248564,120.737405 176.401114,114.39817 176.800149,114.021444 C182.108599,109.00978 181.647339,109.00978 183.175478,100.46027 C184.051525,95.5590309 182.769786,90.6271968 179.311711,88.0447199 C177.094791,86.3891319 173.755021,85.0195603 170.827439,85.0195603 C170.327951,85.0195603 164.682657,84.5644541 160.935136,88.0447199 Z" id="Oval-7-copy-2" opacity="0.544247159" fill="#F6A4AE" transform="translate(170.000000, 109.000000) scale(-1, 1) translate(-170.000000, -109.000000) "></path>
                <path d="M127.814089,54.6922302 C126.06272,56.3430978 124.876006,59.7167856 125.294451,63.5500015 C125.959537,69.6426008 126.97421,70.2136457 129.96472,73.2251083 C130.755915,74.0218474 130.886983,78.9415009 129.060631,79.5175723 C122.614685,81.5507647 119.108368,86.7652019 119.4474,86.7652019 L148.946629,86.7652019 C145.686993,80.8393067 141.4279,80.914119 139.715486,79.5175723 C137.874973,78.0165551 138.685098,73.4938805 138.965579,73.2251086 C142.696879,69.6495785 142.37266,69.6495785 143.446786,63.5500015 C144.062558,60.0532531 143.161626,56.5346769 140.730952,54.6922302 C139.172682,53.5110646 136.825164,52.5339551 134.767372,52.5339551 C134.416282,52.5339551 130.448215,52.2092634 127.814089,54.6922302 Z" id="Oval-7-copy-3" opacity="0.529545455" fill="#F6A4AE" transform="translate(134.185766, 69.642601) scale(-1, 1) translate(-134.185766, -69.642601) "></path>
                <path d="M91.9368156,56.9409119 C90.5819824,58.2179981 89.6639587,60.8278321 89.9876615,63.79315 C90.5021621,68.5062929 91.2870976,68.9480446 93.6005108,71.2776666 C94.2125679,71.894012 94.3139598,75.6997817 92.9011214,76.1454218 C87.9146348,77.7182687 85.2022009,81.7520787 85.4644713,81.7520787 L108.28463,81.7520787 C105.763024,77.1678956 102.468254,77.2257692 101.143557,76.1454218 C99.7197632,74.9842575 100.346464,71.4855847 100.56344,71.2776668 C103.449917,68.5116907 103.199106,68.5116907 104.030034,63.79315 C104.506386,61.0881182 103.809438,58.3662008 101.929105,56.9409119 C100.723652,56.02718 98.9076469,55.2713028 97.3157699,55.2713028 C97.0441724,55.2713028 93.9745356,55.0201262 91.9368156,56.9409119 Z" id="Oval-7-copy-4" opacity="0.409375" fill="#F6A4AE" transform="translate(96.865849, 68.506293) scale(-1, 1) translate(-96.865849, -68.506293) "></path>
                <path d="M55.924325,93.6156049 C53.017411,96.3634192 51.0477102,101.97881 51.742243,108.359071 C52.8461495,118.5 54.5302977,119.450485 59.4939296,124.462964 C60.8071519,125.78911 61.0246972,133.97771 57.993328,134.936562 C47.2943817,138.320743 41.4746159,147 42.03734,147 L91,147 C85.589674,137.136544 78.5204546,137.261067 75.678199,134.936562 C72.6233246,132.438168 73.9679664,124.910327 74.4335073,124.462965 C80.626699,118.511614 80.088562,118.511614 81.8713907,108.359071 C82.8934458,102.538849 81.3980833,96.6822961 77.3636629,93.6156049 C74.7772556,91.6495941 70.8808577,90.0232278 67.4653453,90.0232278 C66.882609,90.0232278 60.2964327,89.4827892 55.924325,93.6156049 Z" id="Oval-7-copy-3" opacity="0.775071023" fill="#F6A4AE" transform="translate(66.500000, 118.500000) scale(-1, 1) translate(-66.500000, -118.500000) "></path>
                <path d="M117,234 C181.617319,234 234,181.617319 234,117 C234,52.3826811 181.617319,0 117,0 C52.3826811,0 0,52.3826811 0,117 C0,181.617319 52.3826811,234 117,234 Z" id="Oval-3-copy" stroke="#F7A4AE" stroke-width="6"></path>
            </g>
        </g>
    </g>
</svg>